<svg id="Gruppe_3" data-name="Gruppe 3" xmlns="http://www.w3.org/2000/svg" width="48.957" height="48.955" viewBox="0 0 48.957 48.955">
  <g id="Gruppe_1" data-name="Gruppe 1" transform="translate(6.978 0.043)">
    <path id="Pfad_1" data-name="Pfad 1" d="M437.152,205.879l-2.352-2.332-2.541,2.562a24.637,24.637,0,0,1,2.936,1.743Z" transform="translate(-403.769 -203.547)" fill="#1b702a"/>
    <path id="Pfad_2" data-name="Pfad 2" d="M403.769,250.822l.817.811,3.2-3.227q-.488-.322-.959-.669Z" transform="translate(-403.769 -203.547)" fill="#1b702a"/>
  </g>
  <path id="Pfad_3" data-name="Pfad 3" d="M435.2,207.855l-12.514,12.618-.545-.542-1.807,1.821a13.042,13.042,0,0,1-3.641,7.194c-3.151,2.993-9.506,1.977-9.506,1.977l10.806-9.212,2.946-2.972-.6-.6,11.93-12.029a24.475,24.475,0,0,0-25.432,41.63l5.183-5.227.819.812-5.042,5.083A24.475,24.475,0,0,0,435.2,207.855Z" transform="translate(-396.791 -203.504)" fill="#1b702a"/>
  <g id="Gruppe_2" data-name="Gruppe 2" transform="translate(11.917 15.796)">
    <path id="Pfad_4" data-name="Pfad 4" d="M424.339,226.292l5.122,5.081L416.054,244.89l-5.122-5.08,13.407-13.518m-.009-2.225-15.622,15.751,7.355,7.295,15.622-15.749-7.355-7.3Z" transform="translate(-408.708 -219.3)" fill="#fff"/>
    <rect id="Rechteck_1" data-name="Rechteck 1" width="11.704" height="0.81" transform="translate(3.735 20.625) rotate(-45.235)" fill="#fff"/>
    <rect id="Rechteck_2" data-name="Rechteck 2" width="5.01" height="2.335" transform="matrix(0.704, -0.71, 0.71, 0.704, 17.878, 7.98)" fill="#fff"/>
    <rect id="Rechteck_3" data-name="Rechteck 3" width="13.606" height="2.163" transform="translate(18.536 0) rotate(44.765)" fill="#fff"/>
  </g>
</svg>
